<?xml version="1.0" encoding="utf-8"?>
<!-- Generator: Adobe Illustrator 26.0.3, SVG Export Plug-In . SVG Version: 6.00 Build 0)  -->
<svg version="1.1" id="Layer_1" xmlns="http://www.w3.org/2000/svg" xmlns:xlink="http://www.w3.org/1999/xlink" x="0px" y="0px"
	 viewBox="0 0 200 200" style="enable-background:new 0 0 200 200;" xml:space="preserve">
<style type="text/css">
	.st0{fill-rule:evenodd;clip-rule:evenodd;fill:#167159;}
</style>
<g>
	<path class="st0" d="M0,5.9l0.4,76.3l51,15.3l0.5,66.5l-17.1-5.2v-50.9L0.7,97.6c0,0,0.2,30.9,0.3,42.6
		c-0.4,15.1,9.2,28.6,23.5,33.4c11.5,3.7,68.5,20.6,68.5,20.6s0-121.1,0-135s-6.7-27.5-20.5-31.6C64.1,25.1,51,21.1,51,21.1
		l0.5,62.3l-16.7-5l0-62L0,5.9z"/>
	<path class="st0" d="M109.2,59.4c0,14.5,0,134.6,0,134.6s56.3-17.6,66.2-20.9c15.4-3.9,25.7-18.3,24.5-34.1c0-17.1,0-132.9,0-132.9
		l-33.7,10.6v142l-16.6,5.2l-0.9-143.2c0,0,0.8,0-13.1,4.2C120.7,30.1,110.4,43.7,109.2,59.4L109.2,59.4z"/>
</g>
</svg>
